<?xml version="1.0" encoding="utf-8"?><svg xmlns="http://www.w3.org/2000/svg" xmlns:xlink="http://www.w3.org/1999/xlink"><symbol fill="currentColor" viewBox="0 0 6 9" id="arrow-6x9" xmlns="http://www.w3.org/2000/svg"><path d="M5.605.213c.402.4.502.999.101 1.399l-3.01 2.899 3.01 2.898c.401.4.401 1.1-.101 1.399-.401.3-.903.3-1.304-.099L-.013 4.511 4.401.313c.301-.4.903-.4 1.204-.1z"/></symbol><symbol fill="currentColor" viewBox="0 0 9 9" id="arrow-fall" xmlns="http://www.w3.org/2000/svg"><path d="M2.8 8L8 2.9 9 9 2.8 8z"/><circle cx="1" cy="1" r="1"/><path d="M1.732.318l5.02 5.02-1.414 1.415-5.02-5.02z"/></symbol><symbol fill="currentColor" viewBox="0 0 9 9" id="arrow-rise" xmlns="http://www.w3.org/2000/svg"><path d="M9 0L8 6.1 2.8 1 9 0z"/><circle cx="1" cy="8" r="1"/><path d="M.318 7.268l5.02-5.02 1.415 1.414-5.02 5.02z"/></symbol><symbol viewBox="0 0 16 16" fill="currentColor" id="bell-16" xmlns="http://www.w3.org/2000/svg"><path d="M8 13H1c0-1-.1-1.9 1-1.9C2 5 4 2 6 2 6 .9 6 0 8 0c1.9 0 2 .9 2 2 2 0 4 3 4 9 1 0 1 1 1 2H8zm-2 1h4c0 1.1 0 2-2 2s-2-.9-2-2z"/></symbol><symbol viewBox="0 0 16 16" fill="currentColor" id="cart-16" xmlns="http://www.w3.org/2000/svg"><path d="M14.2 10.3c-.1.4-.5.7-.9.7H4.8c-.5 0-.9-.3-1-.8L2.2 4c-.1-.6-.6-1-1.2-1H.4C.2 3 0 2.8 0 2.6V1.4c0-.2.2-.4.4-.4h1.4c1 0 1.9.7 2.1 1.7l1.5 6.1c.1.1.3.2.4.2h6.5c.1 0 .2-.1.3-.2l1.1-3.4c.1-.2 0-.4-.2-.4H7.4c-.2 0-.4-.2-.4-.4V3.4c0-.2.2-.4.4-.4H15c.6 0 1 .4 1 1v1l-1.8 5.3zM4.5 13c.8 0 1.5.7 1.5 1.5S5.3 16 4.5 16 3 15.3 3 14.5 3.7 13 4.5 13zm7 0c.8 0 1.5.7 1.5 1.5s-.7 1.5-1.5 1.5-1.5-.7-1.5-1.5.7-1.5 1.5-1.5z"/></symbol><symbol fill="currentColor" viewBox="-2 -2 14 14" id="check-14" xmlns="http://www.w3.org/2000/svg"><path fill="%233d464d" d="M10 2.4L4.5 8 1 4.5l1.4-1.4 2.1 2.1L8.6 1 10 2.4z"/></symbol><symbol viewBox="0 0 16 16" fill="currentColor" id="check-16" xmlns="http://www.w3.org/2000/svg"><path d="M7.5 12L3 7.5l1.4-1.4 3.1 3.1L11.6 5 13 6.4 7.5 12z"/></symbol><symbol viewBox="0 0 20 20" fill="currentColor" id="circle-20" xmlns="http://www.w3.org/2000/svg"><path d="M15 10c0 2.76-2.24 5-5 5s-5-2.24-5-5 2.24-5 5-5 5 2.24 5 5zm-5-7c-3.87 0-7 3.13-7 7s3.13 7 7 7 7-3.13 7-7-3.13-7-7-7z"/></symbol><symbol fill="currentColor" viewBox="0 0 14 14" id="circle-fill-14" xmlns="http://www.w3.org/2000/svg"><circle r="6" cx="7" cy="7"/></symbol><symbol fill="currentColor" viewBox="0 0 12 12" id="cross-12" xmlns="http://www.w3.org/2000/svg"><path d="M10.8 10.8c-.4.4-1 .4-1.4 0L6 7.4l-3.4 3.4c-.4.4-1 .4-1.4 0-.4-.4-.4-1 0-1.4L4.6 6 1.2 2.6c-.4-.4-.4-1 0-1.4.4-.4 1-.4 1.4 0L6 4.6l3.4-3.4c.4-.4 1-.4 1.4 0 .4.4.4 1 0 1.4L7.4 6l3.4 3.4c.4.4.4 1 0 1.4z"/></symbol><symbol viewBox="0 0 16 16" fill="currentColor" id="dashboard-16" xmlns="http://www.w3.org/2000/svg"><path d="M8 13.1c-4.4 0-8 3.4-8-3C0 5.6 3.6 2 8 2s8 3.6 8 8.1c0 6.4-3.6 3-8 3zM8 4c-3.3 0-6 2.7-6 6 0 4 2.4.9 5 .2 0-.3.1-.7.4-1l3-2.3c.4-.3 1-.2 1.3.3.3.5.2 1.1-.2 1.4l-2.2 1.7c2.5.9 4.8 3.6 4.8-.2C14 6.7 11.3 4 8 4z"/></symbol><symbol viewBox="0 0 16 16" fill="currentColor" id="database-16" xmlns="http://www.w3.org/2000/svg"><path d="M8 6C4.7 6 2 4.7 2 3s2.7-3 6-3 6 1.3 6 3-2.7 3-6 3zM2 5zm6 3c3.3 0 6-1.3 6-3v3c0 1.7-2.7 3-6 3S2 9.7 2 8V5c0 1.7 2.7 3 6 3zm6-3zM2 10zm6 3c3.3 0 6-1.3 6-3v3c0 1.7-2.7 3-6 3s-6-1.3-6-3v-3c0 1.7 2.7 3 6 3zm6-3z"/></symbol><symbol fill="currentColor" viewBox="0 0 3 13" id="dots-3x13" xmlns="http://www.w3.org/2000/svg"><path d="M1.5 8C.7 8 0 7.3 0 6.5S.7 5 1.5 5 3 5.7 3 6.5 2.3 8 1.5 8zm0-5C.7 3 0 2.3 0 1.5S.7 0 1.5 0 3 .7 3 1.5 2.3 3 1.5 3zm0 7c.8 0 1.5.7 1.5 1.5S2.3 13 1.5 13 0 12.3 0 11.5.7 10 1.5 10z"/></symbol><symbol viewBox="0 0 16 16" fill="currentColor" id="filters-16" xmlns="http://www.w3.org/2000/svg"><path d="M7 14v-2h9v2H7zm7-7h2v2h-2V7zm-1.5-1c.3 0 .5.2.5.5v3c0 .3-.2.5-.5.5h-2c-.3 0-.5-.2-.5-.5v-3c0-.3.2-.5.5-.5h2zM7 2h9v2H7V2zM5.5 5h-2c-.3 0-.5-.2-.5-.5v-3c0-.3.2-.5.5-.5h2c.3 0 .5.2.5.5v3c0 .3-.2.5-.5.5zM0 2h2v2H0V2zm9 7H0V7h9v2zm-7 5H0v-2h2v2zm1.5-3h2c.3 0 .5.2.5.5v3c0 .3-.2.5-.5.5h-2c-.3 0-.5-.2-.5-.5v-3c0-.3.2-.5.5-.5z"/></symbol><symbol viewBox="0 0 16 16" fill="currentColor" id="gear-16" xmlns="http://www.w3.org/2000/svg"><path d="M14 6.8l-.2.1c.2.4.2.7.2 1.1 0 .4 0 .7-.1 1.1l.1.1c1 .6 1.4 1.9.8 3-.5.9-1.6 1.2-2.5.7l-.5-.3c-.6.5-1.2.8-1.9 1.1v.8c0 .9-.7 1.6-1.6 1.6h-.7C6.7 16 6 15.3 6 14.4v-.8c-.7-.2-1.3-.6-1.9-1.1l-.5.3c-.9.5-2 .2-2.5-.7-.6-1-.3-2.4.8-3l.2-.1C2 8.7 2 8.4 2 8s0-.7.1-1.1L2 6.8c-1.1-.6-1.4-2-.8-3 .5-.8 1.6-1.1 2.4-.6l.5.3C4.7 3 5.3 2.6 6 2.4v-.8C6 .7 6.7 0 7.6 0h.8c.9 0 1.6.7 1.6 1.6v.8c.7.2 1.3.6 1.9 1.1l.5-.3c.9-.5 2-.2 2.5.7.5 1 .2 2.3-.9 2.9zM8 5.5C6.6 5.5 5.5 6.6 5.5 8s1.1 2.5 2.5 2.5 2.5-1.1 2.5-2.5S9.4 5.5 8 5.5z"/></symbol><symbol fill="currentColor" viewBox="0 0 20 20" id="hamburger-20" xmlns="http://www.w3.org/2000/svg"><path d="M1 11V9h18v2H1zm0-8h18v2H1V3zm14 14H1v-2h14v2z"/></symbol><symbol viewBox="0 0 16 16" fill="currentColor" id="heart-16" xmlns="http://www.w3.org/2000/svg"><path d="M11.5 3C12.9 3 14 4.1 14 5.5c0 2.7-4.3 6.4-6 7.4-1.7-1-6-4.7-6-7.4C2 4.1 3.1 3 4.5 3c.8 0 1.5.3 1.9.9L8 5.3l1.6-1.4c.4-.6 1.1-.9 1.9-.9m0-2c-1.4 0-2.7.6-3.5 1.7C7.2 1.6 5.9 1 4.5 1 2 1 0 3 0 5.5 0 10 7 15 8 15s8-5 8-9.5C16 3 14 1 11.5 1z"/></symbol><symbol viewBox="0 0 16 16" fill="currentColor" id="magnifier-16" xmlns="http://www.w3.org/2000/svg"><path d="M16.243 14.828s-.196.48-.542.826c-.361.361-.873.588-.873.588l-4.507-4.506A6.445 6.445 0 016.5 13 6.5 6.5 0 1113 6.5a6.445 6.445 0 01-1.264 3.821l4.507 4.507zM6.5 2a4.5 4.5 0 100 9 4.5 4.5 0 000-9z"/></symbol><symbol viewBox="0 0 16 16" fill="currentColor" id="person-16" xmlns="http://www.w3.org/2000/svg"><path d="M8 10c-3.3 0-6 2.7-6 6H0c0-3.2 1.9-6 4.7-7.3C3.7 7.8 3 6.5 3 5c0-2.8 2.2-5 5-5s5 2.2 5 5c0 1.5-.7 2.8-1.7 3.7 2.8 1.3 4.7 4 4.7 7.3h-2c0-3.3-2.7-6-6-6zm0-8C6.3 2 5 3.3 5 5s1.3 3 3 3 3-1.3 3-3-1.3-3-3-3z"/></symbol><symbol viewBox="0 0 16 16" fill="currentColor" id="statistics-16" xmlns="http://www.w3.org/2000/svg"><path d="M14.5 15h-1c-.8 0-1.5-.7-1.5-1.5v-8c0-.8.7-1.5 1.5-1.5h1c.8 0 1.5.7 1.5 1.5v8c0 .8-.7 1.5-1.5 1.5zm-6 0h-1c-.8 0-1.5-.7-1.5-1.5v-11C6 1.7 6.7 1 7.5 1h1c.8 0 1.5.7 1.5 1.5v11c0 .8-.7 1.5-1.5 1.5zm-6 0h-1C.7 15 0 14.3 0 13.5v-5C0 7.7.7 7 1.5 7h1C3.3 7 4 7.7 4 8.5v5c0 .8-.7 1.5-1.5 1.5z"/></symbol></svg>